<?xml version="1.0" encoding="utf-8"?>
<!-- Generator: Adobe Illustrator 17.0.0, SVG Export Plug-In . SVG Version: 6.00 Build 0)  -->
<!DOCTYPE svg PUBLIC "-//W3C//DTD SVG 1.1//EN" "http://www.w3.org/Graphics/SVG/1.1/DTD/svg11.dtd">
<svg version="1.1" id="图形" xmlns="http://www.w3.org/2000/svg" xmlns:xlink="http://www.w3.org/1999/xlink" x="0px" y="0px"
	 width="1000.636px" height="1000.678px" viewBox="15.167 -16.333 1000.636 1000.678"
	 enable-background="new 15.167 -16.333 1000.636 1000.678" xml:space="preserve">
<g>
	<path fill="#272636" d="M151.125,99.329c43.709,3.847,85.649,7.362,127.546,11.326c12.533,1.191,23.003,7.105,31.493,16.642
		c65.939,74.065,132.067,147.969,197.771,222.242c6.299,7.119,8.987,6.927,15.161-0.056
		c65.255-73.752,130.933-147.123,196.347-220.739c8.961-10.09,19.566-16.799,32.966-18.049c42.25-3.947,84.546-7.384,126.783-11.465
		c7.414-0.719,8.595,1.548,7.942,8.221c-4.074,41.535-7.95,83.087-11.611,124.661c-1.263,14.386-7.815,25.443-18.441,34.897
		c-75.912,67.534-151.615,135.309-227.666,202.69c-6.365,5.641-7.006,8.617-1.028,14.991c17.849,19.03,34.8,38.899,52.439,58.124
		c4.321,4.706,5.076,7.372-0.016,12.355c-27.359,26.78-54.408,53.872-81.219,81.197c-4.587,4.67-7.058,4.331-11.6,0.184
		c-22.109-20.162-44.71-39.789-66.732-60.042c-4.797-4.414-7.263-3.891-11.724,0.184c-21.59,19.701-43.76,38.768-65.191,58.642
		c-6.068,5.629-9.231,4.897-14.659-0.653c-26.283-26.87-52.897-53.418-79.703-79.763c-4.452-4.383-4.823-6.752-0.452-11.506
		c18.14-19.717,35.513-40.146,53.812-59.705c5.568-5.951,4.422-8.5-1.072-13.374C326.268,402.897,250.565,335.133,174.58,267.68
		c-11.564-10.26-18.21-22.257-19.535-37.692c-3.503-40.894-7.235-81.767-11.226-122.613
		C143.031,99.386,145.606,97.198,151.125,99.329L151.125,99.329z"/>
	<path fill="#272636" d="M427.288,772.367c-10.032,0.175-18.022-4.099-24.932-11.078c-14.446-14.59-29.141-28.933-43.43-43.671
		c-3.916-4.044-6.216-4.735-10.581-0.317c-32.291,32.665-64.793,65.117-97.42,97.442c-3.853,3.816-4.079,6.125,0.04,9.671
		c4.731,4.074,9.153,8.561,13.321,13.214c7.21,8.047,6.673,17.033-1.111,25.016c-8.003,8.207-17.931,9.24-25.756,1.486
		c-38.554-38.211-76.935-76.591-115.16-115.129c-8.168-8.238-7.41-17.282,0.925-25.681c8.077-8.134,17.369-8.5,25.791-1.01
		c0.257,0.23,0.496,0.487,0.766,0.705c6.068,4.998,10.533,15.719,17.418,14.704c6.409-0.946,11.653-10.09,17.309-15.731
		c27.824-27.782,55.497-55.715,83.53-83.284c4.788-4.71,5.058-7.24,0.053-11.998c-14.621-13.901-28.743-28.329-42.924-42.693
		c-15.497-15.701-15.4-34.87,0.078-50.705c2.675-2.735,5.372-5.454,8.108-8.13c16.284-15.905,35.174-15.858,51.401,0.352
		c58.591,58.526,117.147,117.089,175.658,175.688c16.611,16.638,16.545,35.466,0.079,52.175
		C444.666,769.401,439.468,772.371,427.288,772.367L427.288,772.367z"/>
	<path fill="#272636" d="M817.132,558.403c0.062,9.924-3.659,18.166-10.705,25.133c-14.59,14.433-28.887,29.162-43.652,43.421
		c-4.336,4.19-5.198,6.473-0.327,11.266c32.482,31.959,64.672,64.21,96.71,96.618c4.299,4.347,6.817,4.203,10.577-0.217
		c3.82-4.488,8.156-8.57,12.533-12.53c7.828-7.087,17.222-6.677,25.02,0.815c8.595,8.254,9.775,17.595,1.807,25.643
		c-38.423,38.808-77.058,77.415-115.878,115.821c-7.76,7.671-17.748,6.369-25.694-2.003c-7.751-8.169-7.994-16.769-0.675-25.033
		c0.915-1.041,1.979-1.951,2.957-2.944c14.764-14.93,14.756-14.922,0.223-29.451c-28.539-28.531-57.271-56.87-85.432-85.762
		c-5.946-6.103-9.005-5.499-14.397,0.253c-12.364,13.188-25.425,25.731-38.224,38.511c-19.74,19.717-37.078,19.808-56.591,0.313
		c-1.721-1.725-3.446-3.441-5.154-5.176c-15.974-16.189-16.133-35.37-0.144-51.401c42.25-42.363,84.595-84.63,126.9-126.94
		c16.485-16.476,32.913-33.009,49.469-49.415c16.153-16.007,35.083-15.92,51.385,0.06
		C813.621,540.85,817.045,546.705,817.132,558.403L817.132,558.403z"/>
</g>
</svg>
