<?xml version="1.0" encoding="utf-8"?>
<!-- Generator: Adobe Illustrator 17.0.0, SVG Export Plug-In . SVG Version: 6.00 Build 0)  -->
<!DOCTYPE svg PUBLIC "-//W3C//DTD SVG 1.1//EN" "http://www.w3.org/Graphics/SVG/1.1/DTD/svg11.dtd">
<svg version="1.1" id="图形" xmlns="http://www.w3.org/2000/svg" xmlns:xlink="http://www.w3.org/1999/xlink" x="0px" y="0px"
	 width="1000.636px" height="1000.678px" viewBox="15.167 -16.333 1000.636 1000.678"
	 enable-background="new 15.167 -16.333 1000.636 1000.678" xml:space="preserve">
<path fill="#272636" d="M843.111,866.254H624.674c-30.14,0-54.603-24.463-54.603-54.642v-218.4
	c0-30.125,24.463-54.625,54.603-54.625h218.437c30.141,0,54.604,24.501,54.604,54.625v218.4
	C897.715,841.792,873.252,866.254,843.111,866.254L843.111,866.254z M843.111,429.418H624.674c-30.14,0-54.603-24.463-54.603-54.589
	V156.414c0-30.194,24.463-54.657,54.603-54.657h218.437c30.141,0,54.604,24.463,54.604,54.657V374.83
	C897.715,404.955,873.252,429.418,843.111,429.418L843.111,429.418z M406.274,866.254H187.858
	c-30.158,0-54.604-24.463-54.604-54.642v-218.4c0-30.125,24.446-54.625,54.604-54.625h218.416c30.146,0,54.587,24.501,54.587,54.625
	v218.4C460.862,841.792,436.416,866.254,406.274,866.254L406.274,866.254z M406.274,429.418H187.858
	c-30.158,0-54.604-24.463-54.604-54.587V156.414c0-30.194,24.446-54.657,54.604-54.657h218.416
	c30.146,0,54.587,24.463,54.587,54.657V374.83C460.862,404.955,436.416,429.418,406.274,429.418L406.274,429.418z"/>
</svg>
