<?xml version="1.0" encoding="utf-8"?>
<!-- Generator: Adobe Illustrator 17.0.0, SVG Export Plug-In . SVG Version: 6.00 Build 0)  -->
<!DOCTYPE svg PUBLIC "-//W3C//DTD SVG 1.1//EN" "http://www.w3.org/Graphics/SVG/1.1/DTD/svg11.dtd">
<svg version="1.1" id="图形" xmlns="http://www.w3.org/2000/svg" xmlns:xlink="http://www.w3.org/1999/xlink" x="0px" y="0px"
	 width="1000.636px" height="1000.678px" viewBox="15.167 -16.333 1000.636 1000.678"
	 enable-background="new 15.167 -16.333 1000.636 1000.678" xml:space="preserve">
<path fill="#272636" d="M834.528,58.616H276.203c-88.109,0-159.521,71.412-159.521,159.521v558.325
	c0,73.433,59.501,132.934,132.934,132.934h451.977c29.405,0,53.174-23.769,53.174-53.174V377.658
	c0-29.352-23.769-53.174-53.174-53.174H307.948c-1.755,0.106-3.403,0.532-5.158,0.532c-44.081,0-79.761-35.839-79.761-80.027
	c0-43.603,34.829-78.91,78.112-79.867v-0.16h453.626c29.405,0,53.174,23.822,53.174,53.174v584.912
	c0,29.405,23.769,53.174,53.174,53.174c29.405,0,53.174-23.769,53.174-53.174V138.376C914.288,94.295,878.555,58.616,834.528,58.616
	z"/>
</svg>
