<?xml version="1.0" encoding="utf-8"?>
<!-- Generator: Adobe Illustrator 17.0.0, SVG Export Plug-In . SVG Version: 6.00 Build 0)  -->
<!DOCTYPE svg PUBLIC "-//W3C//DTD SVG 1.1//EN" "http://www.w3.org/Graphics/SVG/1.1/DTD/svg11.dtd">
<svg version="1.1" id="图形" xmlns="http://www.w3.org/2000/svg" xmlns:xlink="http://www.w3.org/1999/xlink" x="0px" y="0px"
	 width="1000.636px" height="1000.678px" viewBox="15.167 -16.333 1000.636 1000.678"
	 enable-background="new 15.167 -16.333 1000.636 1000.678" xml:space="preserve">
<path fill="#272636" d="M621.476,132.947c0,47.592-39.59,86.172-88.433,86.172c-48.841,0-88.433-38.58-88.433-86.172
	c0-47.594,39.591-86.172,88.433-86.172C581.886,46.776,621.476,85.359,621.476,132.947L621.476,132.947z M533.044,770.687
	c-42.732,0-77.378,33.755-77.378,75.4c0,41.64,34.646,75.4,77.378,75.4c42.738,0,77.378-33.76,77.378-75.4
	C610.422,804.442,575.781,770.687,533.044,770.687L533.044,770.687z M898.97,543.372c-30.527,0-55.27-24.104-55.27-53.857
	c0-29.742,24.743-53.857,55.27-53.857c30.528,0,55.27,24.115,55.27,53.857C954.241,519.268,929.494,543.372,898.97,543.372
	L898.97,543.372z M255.555,489.514c0-47.594-39.59-86.172-88.433-86.172S78.69,441.92,78.69,489.514s39.59,86.172,88.433,86.172
	S255.555,537.108,255.555,489.514L255.555,489.514z M336.835,176.453c34.533,33.651,34.533,88.213,0,121.863
	c-34.538,33.65-90.531,33.65-125.066,0c-34.538-33.65-34.538-88.211,0-121.869C246.304,142.797,302.297,142.797,336.835,176.453
	L336.835,176.453z M744.896,695.949c-25.904,25.24-25.904,66.159,0,91.4c25.903,25.235,67.894,25.235,93.796,0
	c25.903-25.241,25.903-66.159,0-91.4C812.79,670.709,770.798,670.709,744.896,695.949L744.896,695.949z M823.062,267.852
	c-17.267,16.825-45.263,16.825-62.53,0c-17.272-16.83-17.272-44.112,0-60.937c17.272-16.825,45.269-16.825,62.53,0
	C840.328,223.741,840.328,251.028,823.062,267.852L823.062,267.852z M336.835,680.718c-34.538-33.656-90.525-33.656-125.066,0
	c-34.533,33.65-34.538,88.208,0,121.857c34.535,33.656,90.527,33.656,125.06,0C371.368,768.926,371.368,714.369,336.835,680.718
	L336.835,680.718z"/>
</svg>
