<?xml version="1.0" encoding="utf-8"?>
<!-- Generator: Adobe Illustrator 17.0.0, SVG Export Plug-In . SVG Version: 6.00 Build 0)  -->
<!DOCTYPE svg PUBLIC "-//W3C//DTD SVG 1.1//EN" "http://www.w3.org/Graphics/SVG/1.1/DTD/svg11.dtd">
<svg version="1.1" id="图形" xmlns="http://www.w3.org/2000/svg" xmlns:xlink="http://www.w3.org/1999/xlink" x="0px" y="0px"
	 width="1000.636px" height="1000.678px" viewBox="15.167 -16.333 1000.636 1000.678"
	 enable-background="new 15.167 -16.333 1000.636 1000.678" xml:space="preserve">
<path fill="#272636" d="M514.797,583.159L514.797,583.159c72.749,0,132.273-59.523,132.273-132.272V212.093
	c0-72.749-59.523-132.273-132.273-132.273l0,0c-72.749,0-132.273,59.523-132.273,132.273v238.794
	C382.524,523.636,442.047,583.159,514.797,583.159L514.797,583.159z M742.82,298.742c-25.672,0-46.483,20.812-46.483,46.479v109.36
	c0,100.103-81.439,181.54-181.541,181.54s-181.541-81.438-181.541-181.54v-109.36c0-25.667-20.806-46.479-46.478-46.479
	c-25.668,0-46.479,20.812-46.479,46.479v109.36c0,36.929,7.301,72.829,21.693,106.711c13.865,32.64,33.684,61.976,58.902,87.196
	c25.216,25.215,54.551,45.032,87.196,58.902c19.472,8.272,39.613,14.189,60.228,17.733v59.652h-91.493
	c-25.672,0-46.478,20.811-46.478,46.479c0,25.667,20.806,46.479,46.478,46.479h275.95c25.667,0,46.478-20.812,46.478-46.479
	c0-25.668-20.811-46.479-46.478-46.479H561.28v-59.652c20.615-3.544,40.756-9.461,60.227-17.733
	c32.641-13.87,61.98-33.687,87.196-58.902c25.215-25.22,45.034-54.556,58.902-87.196c14.393-33.882,21.694-69.782,21.694-106.711
	v-109.36C789.3,319.554,768.489,298.742,742.82,298.742L742.82,298.742z"/>
</svg>
