<?xml version="1.0" encoding="utf-8"?>
<!-- Generator: Adobe Illustrator 17.0.0, SVG Export Plug-In . SVG Version: 6.00 Build 0)  -->
<!DOCTYPE svg PUBLIC "-//W3C//DTD SVG 1.1//EN" "http://www.w3.org/Graphics/SVG/1.1/DTD/svg11.dtd">
<svg version="1.1" id="图形" xmlns="http://www.w3.org/2000/svg" xmlns:xlink="http://www.w3.org/1999/xlink" x="0px" y="0px"
	 width="1000.636px" height="1000.678px" viewBox="15.167 -16.333 1000.636 1000.678"
	 enable-background="new 15.167 -16.333 1000.636 1000.678" xml:space="preserve">
<path fill="#272636" d="M721.048,918.723H312.599c-60.151,0-108.92-48.769-108.92-108.92V156.285
	c0-60.151,48.769-108.92,108.92-108.92h408.449c60.151,0,108.92,48.769,108.92,108.92v653.518
	C829.968,869.954,781.199,918.723,721.048,918.723z M775.508,156.285c0-30.062-24.398-54.46-54.46-54.46H312.599
	c-30.062,0-54.46,24.398-54.46,54.46v27.23h517.369V156.285z M775.508,237.974H258.139v435.679h517.369V237.974z M775.508,728.113
	H258.139v81.69c0,30.062,24.398,54.46,54.46,54.46h408.449c30.062,0,54.46-24.398,54.46-54.46V728.113z M516.823,837.033
	c-22.546,0-40.845-18.299-40.845-40.845c0-22.574,18.299-40.845,40.845-40.845c22.574,0,40.845,18.271,40.845,40.845
	C557.668,818.734,539.397,837.033,516.823,837.033z"/>
</svg>
