<?xml version="1.0" encoding="utf-8"?>
<!-- Generator: Adobe Illustrator 17.0.0, SVG Export Plug-In . SVG Version: 6.00 Build 0)  -->
<!DOCTYPE svg PUBLIC "-//W3C//DTD SVG 1.1//EN" "http://www.w3.org/Graphics/SVG/1.1/DTD/svg11.dtd">
<svg version="1.1" id="图形" xmlns="http://www.w3.org/2000/svg" xmlns:xlink="http://www.w3.org/1999/xlink" x="0px" y="0px"
	 width="1000.636px" height="1000.678px" viewBox="15.167 -16.333 1000.636 1000.678"
	 enable-background="new 15.167 -16.333 1000.636 1000.678" xml:space="preserve">
<path fill="#272636" d="M733.931,842.863c0,22.06-19.568,39.942-43.705,39.942H165.759c-24.136,0-43.7-17.882-43.7-39.942l0-199.703
	c0-22.057,19.564-39.942,43.7-39.942h262.236v-39.939l-262.236,0c-48.277,0-87.409,35.763-87.409,79.881v199.704
	c0,44.116,39.131,79.883,87.409,79.883h524.467c48.277,0,87.414-35.766,87.414-79.883v-39.939h-43.709V842.863z M865.053,44.05
	h-262.24c-48.268,0-87.409,35.763-87.409,79.881v519.23c0,44.116,39.141,79.881,87.409,79.881h262.24
	c48.273,0,87.405-35.763,87.405-79.881v-519.23C952.457,79.813,913.326,44.05,865.053,44.05z M908.757,643.16
	c0,22.057-19.573,39.942-43.705,39.942l-262.239,0c-24.136,0-43.7-17.885-43.7-39.942v-519.23c0-22.057,19.564-39.942,43.7-39.942
	h262.24c24.132,0,43.705,17.885,43.705,39.942v519.23H908.757z M733.931,543.307c-24.136,0-43.705,17.885-43.705,39.942
	c0,22.06,19.568,39.942,43.705,39.942c24.136,0,43.709-17.882,43.709-39.942C777.64,561.192,758.067,543.307,733.931,543.307z"/>
</svg>
