<?xml version="1.0" encoding="utf-8"?>
<!-- Generator: Adobe Illustrator 17.0.0, SVG Export Plug-In . SVG Version: 6.00 Build 0)  -->
<!DOCTYPE svg PUBLIC "-//W3C//DTD SVG 1.1//EN" "http://www.w3.org/Graphics/SVG/1.1/DTD/svg11.dtd">
<svg version="1.1" id="图形" xmlns="http://www.w3.org/2000/svg" xmlns:xlink="http://www.w3.org/1999/xlink" x="0px" y="0px"
	 width="1000.636px" height="1000.678px" viewBox="15.167 -16.333 1000.636 1000.678"
	 enable-background="new 15.167 -16.333 1000.636 1000.678" xml:space="preserve">
<g>
	<path fill="#272636" d="M570.588,158.063V98.276L350.17,236.036l220.418,137.76V270.257
		c110.206,25.183,192.863,123.542,192.863,241.299c0,136.712-111.258,247.966-247.966,247.966
		c-136.714,0-247.972-111.254-247.972-247.966c0-30.47-24.632-55.103-55.103-55.103c-30.471,0.001-55.103,24.633-55.103,55.105
		c0,197.492,160.686,358.178,358.178,358.178S873.663,709.05,873.663,511.557C873.663,332.853,741.906,184.68,570.588,158.063
		L570.588,158.063z"/>
</g>
</svg>
