<?xml version="1.0" encoding="utf-8"?>
<!-- Generator: Adobe Illustrator 17.0.0, SVG Export Plug-In . SVG Version: 6.00 Build 0)  -->
<!DOCTYPE svg PUBLIC "-//W3C//DTD SVG 1.1//EN" "http://www.w3.org/Graphics/SVG/1.1/DTD/svg11.dtd">
<svg version="1.1" id="图形" xmlns="http://www.w3.org/2000/svg" xmlns:xlink="http://www.w3.org/1999/xlink" x="0px" y="0px"
	 width="1000.636px" height="1000.678px" viewBox="15.167 -16.333 1000.636 1000.678"
	 enable-background="new 15.167 -16.333 1000.636 1000.678" xml:space="preserve">
<path fill="#272636" d="M944.05,287.467L944.05,287.467L453.808,780.921l0,0c-12.126,12.199-28.876,19.744-47.378,19.744
	c-18.503,0-35.254-7.544-47.378-19.744l0,0L92.155,535.659l0,0c-12.129-12.2-19.626-29.056-19.626-47.674
	c0-37.24,29.999-67.425,67.002-67.425c18.505,0,35.254,7.544,47.378,19.748l0,0l219.52,197.583l442.864-445.775l0,0
	c12.124-12.202,28.876-19.748,47.376-19.748c37.006,0,67.005,30.184,67.005,67.425C963.674,258.407,956.175,275.267,944.05,287.467z
	"/>
</svg>
