<?xml version="1.0" encoding="utf-8"?>
<!-- Generator: Adobe Illustrator 17.0.0, SVG Export Plug-In . SVG Version: 6.00 Build 0)  -->
<!DOCTYPE svg PUBLIC "-//W3C//DTD SVG 1.1//EN" "http://www.w3.org/Graphics/SVG/1.1/DTD/svg11.dtd">
<svg version="1.1" id="图形" xmlns="http://www.w3.org/2000/svg" xmlns:xlink="http://www.w3.org/1999/xlink" x="0px" y="0px"
	 width="1000.636px" height="1000.678px" viewBox="15.167 -16.333 1000.636 1000.678"
	 enable-background="new 15.167 -16.333 1000.636 1000.678" xml:space="preserve">
<path fill="#272636" d="M897.314,184.513c11.706,11.729,11.706,30.91,0,42.597L663.051,461.483
	c-11.706,11.68-11.706,30.892,0,42.622l234.143,234.451c11.71,11.71,11.71,30.892,0,42.597L811.891,866.3
	c-11.706,11.68-30.887,11.68-42.592,0L535.24,631.843c-11.706-11.706-30.887-11.706-42.592,0L258.389,866.125
	c-11.706,11.688-30.887,11.688-42.592,0l-85.195-85.261c-11.706-11.688-11.706-30.916,0-42.603l234.324-234.306
	c11.706-11.706,11.706-30.875,0-42.639L130.79,226.883c-11.71-11.729-11.71-30.916,0.024-42.603l85.249-85.134
	c11.699-11.729,30.887-11.729,42.592,0.042l234.06,234.367c11.699,11.729,30.887,11.729,42.586,0.042L769.534,99.314
	c11.706-11.71,30.879-11.71,42.592,0l85.188,85.201V184.513z"/>
</svg>
